<svg   id="Onda1" xmlns="http://www.w3.org/2000/svg" xmlns:xlink="http://www.w3.org/1999/xlink" viewBox="0 0 96 60">
<defs><style>.st0{fill:url(#SVGID_1_);}.st1{fill:url(#SVGID_2_);}.st2{fill:url(#SVGID_3_);}.st3{fill:url(#SVGID_4_);}#wave {clip-path: url(#myClip);}#wave .top{-webkitanimation: translate 3s linear infinite;animation: translate 3s linear infinite;animation-fill-mode: both;animation-delay: 0}#wave .bottom{-webkit-animation: translate 2s linear infinite;animation: translate 2s linear infinite;animation-fill-mode: both;animation-delay: 0}@keyframes translate {0% {transform: translateX(0);}100%{transform: translateX(-160px);}}</style><linearGradient id="linear-gradient" x1="160" y1="12.5" x2="320" y2="12.5" gradientUnits="userSpaceOnUse"><stop offset="0" stop-color="#025892"/><stop offset="0.29" stop-color="#58bdda"/><stop offset="0.55" stop-color="#2fbb9d"/><stop offset="0.8" stop-color="#58bdda"/><stop offset="1" stop-color="#025892"/></linearGradient><linearGradient id="linear-gradient-2" x1="0" x2="160" xlink:href="#linear-gradient"/><linearGradient id="linear-gradient-3" x1="0" y1="47.5" x2="160" y2="47.5" xlink:href="#linear-gradient"/><linearGradient id="linear-gradient-4" y1="47.5" y2="47.5" xlink:href="#linear-gradient"/></defs><clipPath id="myClip"><rect x="0" y="0" width="96" height="60" /></clipPath><g id="wave"><g class="top"><linearGradient id="SVGID_1_" gradientUnits="userSpaceOnUse" x1="160" y1="47.5099" x2="320" y2="47.5099" gradientTransform="matrix(1 0 0 -1 0 60)"><stop  offset="0" style="stop-color:#025892"/><stop  offset="0.29" style="stop-color:#58BDDA"/><stop  offset="0.55" style="stop-color:#2FBB9D"/><stop  offset="0.8" style="stop-color:#58BDDA"/><stop  offset="1" style="stop-color:#025892"/></linearGradient><path class="st0" d="M256,4.3c-0.1,0-0.3,0-0.4,0.1c-0.1,0-0.2,0-0.2,0h-0.1c-0.1,0.1-0.3,0.1-0.4,0.2c-0.1,0.1-0.2,0.1-0.3,0.2
c-0.1,0.1-0.2,0.2-0.2,0.3c-0.1,0.1-0.1,0.2-0.2,0.3c0,0,0,0.1,0,0.1c-2,5.6-7.5,11.2-14.1,11.2S227.9,11,225.9,5.5
c0,0,0-0.1,0-0.1c-0.1-0.1-0.1-0.2-0.2-0.3c-0.1-0.1-0.1-0.2-0.2-0.3c-0.1-0.1-0.2-0.2-0.3-0.2c-0.1-0.1-0.2-0.2-0.4-0.2h-0.1
c-0.1,0-0.2,0-0.3,0c-0.1,0-0.3-0.1-0.4-0.1c-0.1,0-0.3,0-0.4,0.1c-0.1,0-0.2,0-0.2,0h-0.1c-0.1,0.1-0.3,0.1-0.4,0.2
c-0.1,0.1-0.2,0.1-0.3,0.2c-0.1,0.1-0.2,0.2-0.2,0.3c-0.1,0.1-0.2,0.2-0.2,0.3c0,0,0,0.1,0,0.1c-2,5.6-7.5,11.2-14.1,11.2
S196,11,194,5.5c0,0,0-0.1,0-0.1c-0.1-0.1-0.1-0.2-0.2-0.3c-0.1-0.2-0.3-0.4-0.5-0.5c-0.1-0.1-0.2-0.2-0.4-0.2h-0.1
c-0.1,0-0.2,0-0.3,0c-0.1,0-0.3-0.1-0.4-0.1c-0.1,0-0.3,0-0.4,0.1c-0.1,0-0.2,0-0.2,0h-0.1c-0.1,0.1-0.3,0.1-0.4,0.2
c-0.1,0.1-0.2,0.1-0.3,0.2c-0.1,0.1-0.2,0.2-0.2,0.3c-0.1,0.1-0.2,0.2-0.2,0.3c0,0,0,0.1,0,0.1c-2,5.6-7.5,11.2-14.1,11.2
S164.1,11,162.1,5.5c-0.3-0.8-1.2-1.3-2.1-1.2v6.6c3.2,5.3,8.9,9.9,16,9.9s12.8-4.6,16-9.9c3.2,5.3,8.9,9.9,16,9.9s12.8-4.6,16-9.9
c3.2,5.3,8.9,9.9,16,9.9s12.8-4.6,16-9.9V4.3z"/><linearGradient id="SVGID_2_" gradientUnits="userSpaceOnUse" x1="0" y1="47.5" x2="160" y2="47.5" gradientTransform="matrix(1 0 0 -1 0 60)"><stop  offset="0" style="stop-color:#025892"/><stop  offset="0.29" style="stop-color:#58BDDA"/><stop  offset="0.55" style="stop-color:#2FBB9D"/><stop  offset="0.8" style="stop-color:#58BDDA"/><stop  offset="1" style="stop-color:#025892"/></linearGradient><path class="st1" d="M158.1,5.6c-2,5.6-7.5,11.2-14.1,11.2s-12.1-5.6-14.1-11.2c0,0,0-0.1,0-0.1c-0.1-0.1-0.1-0.2-0.2-0.3
c-0.1-0.1-0.1-0.2-0.2-0.3c-0.1-0.1-0.2-0.1-0.3-0.2c-0.1-0.1-0.2-0.2-0.4-0.2h-0.1c-0.1,0-0.2,0-0.3,0c-0.3-0.1-0.6-0.1-0.8,0
c-0.1,0-0.2,0-0.3,0h-0.1c-0.1,0.1-0.3,0.1-0.4,0.2c-0.1,0.1-0.2,0.1-0.3,0.2c-0.1,0.1-0.2,0.2-0.2,0.3c-0.1,0.1-0.2,0.2-0.2,0.3
c0,0,0,0.1,0,0.1c-2,5.6-7.5,11.2-14.1,11.2S99.9,11.1,97.9,5.6c0,0,0-0.1,0-0.1c-0.1-0.1-0.1-0.2-0.2-0.3
c-0.1-0.2-0.3-0.4-0.5-0.5c-0.1-0.1-0.2-0.2-0.3-0.2h-0.1c-0.1,0-0.2,0-0.3,0c-0.3-0.1-0.6-0.1-0.8,0c-0.1,0-0.2,0-0.2,0h-0.1
c-0.1,0.1-0.3,0.1-0.4,0.2c-0.1,0.1-0.2,0.1-0.3,0.2c-0.1,0.1-0.2,0.2-0.2,0.3c-0.1,0.1-0.1,0.2-0.2,0.3c0,0,0,0.1,0,0.1
c-2,5.6-7.5,11.2-14.1,11.2S67.9,11.1,65.9,5.6c0,0,0-0.1,0-0.1c-0.1-0.1-0.1-0.2-0.2-0.3c-0.1-0.1-0.1-0.2-0.2-0.3
c-0.1-0.1-0.2-0.2-0.3-0.2c-0.1-0.1-0.2-0.2-0.4-0.2h-0.1c-0.1,0-0.2,0-0.3,0c-0.1-0.1-0.3-0.1-0.5-0.2c-0.1,0-0.3,0-0.4,0.1
c-0.1,0-0.2,0-0.2,0h-0.1c-0.1,0.1-0.3,0.1-0.4,0.2c-0.1,0.1-0.2,0.1-0.3,0.2c-0.1,0.1-0.2,0.2-0.2,0.3c-0.1,0.1-0.2,0.2-0.2,0.3
c0,0,0,0.1,0,0.1c-2,5.6-7.5,11.2-14.1,11.2S35.9,11.1,33.9,5.6c0,0,0-0.1,0-0.1c-0.1-0.1-0.1-0.2-0.2-0.3
c-0.1-0.2-0.3-0.4-0.5-0.5c-0.1-0.1-0.2-0.2-0.3-0.2h-0.1c-0.1,0-0.2,0-0.3,0c-0.1-0.1-0.3-0.1-0.4-0.1c-0.1,0-0.3,0-0.4,0.1
c-0.1,0-0.2,0-0.2,0h-0.1c-0.1,0.1-0.3,0.1-0.4,0.2c-0.1,0.1-0.2,0.1-0.3,0.2c-0.1,0.1-0.2,0.2-0.2,0.3c-0.1,0.1-0.2,0.2-0.2,0.3
c0,0,0,0.1,0,0.1c-2,5.6-7.5,11.2-14.1,11.2S3.9,11.1,1.9,5.6C1.6,4.8,0.8,4.3,0,4.3v6.6c3.2,5.3,8.9,9.9,16,9.9s12.8-4.6,16-9.9
c3.2,5.3,8.8,9.9,16,9.9s12.8-4.6,16-9.9c3.2,5.3,8.8,9.9,16,9.9s12.8-4.6,16-9.9c3.2,5.3,8.8,9.9,16,9.9s12.8-4.6,16-9.9
c3.2,5.3,8.9,9.9,16,9.9s12.8-4.6,16-9.9V4.3C159.2,4.3,158.4,4.8,158.1,5.6z"/>
</g><g class="bottom"><linearGradient id="SVGID_3_" gradientUnits="userSpaceOnUse" x1="144" y1="12.511" x2="304" y2="12.511" gradientTransform="matrix(1 0 0 -1 0 60)"><stop  offset="0" style="stop-color:#025892"/><stop  offset="0.29" style="stop-color:#58BDDA"/><stop  offset="0.55" style="stop-color:#2FBB9D"/><stop  offset="0.8" style="stop-color:#58BDDA"/><stop  offset="1" style="stop-color:#025892"/></linearGradient><path class="st2" d="M241.9,40.6C241.9,40.5,241.9,40.5,241.9,40.6c-0.1-0.2-0.1-0.3-0.2-0.4c-0.1-0.2-0.3-0.4-0.5-0.5
c-0.1-0.1-0.2-0.2-0.4-0.2h-0.1c-0.1,0-0.2,0-0.3,0c-0.3-0.1-0.6-0.1-0.8,0c-0.1,0-0.2,0-0.2,0h-0.1c-0.1,0.1-0.3,0.1-0.4,0.2
c-0.1,0.1-0.2,0.1-0.3,0.2c-0.1,0.1-0.2,0.2-0.2,0.3c-0.1,0.1-0.1,0.2-0.2,0.3c0,0,0,0.1,0,0.1c-2,5.5-7.5,11.2-14.1,11.2
S212,46.1,210,40.6c0,0,0-0.1,0-0.1c-0.1-0.1-0.1-0.2-0.2-0.3c-0.1-0.1-0.1-0.2-0.2-0.3c-0.1-0.1-0.2-0.2-0.3-0.2
c-0.1-0.1-0.2-0.2-0.4-0.2h-0.1c-0.1,0-0.2,0-0.3,0c-0.1,0-0.3-0.1-0.4-0.1c-0.1,0-0.3,0-0.4,0.1c-0.1,0-0.2,0-0.2,0h-0.1
c-0.1,0.1-0.3,0.1-0.4,0.2c-0.1,0.1-0.2,0.1-0.3,0.2c-0.1,0.1-0.2,0.2-0.2,0.3c-0.1,0.1-0.2,0.2-0.2,0.3c0,0,0,0.1,0,0.1
c-2,5.5-7.5,11.2-14.1,11.2s-12.1-5.6-14.1-11.2c0,0,0-0.1,0-0.1c-0.1-0.1-0.1-0.2-0.2-0.3c-0.1-0.2-0.3-0.4-0.5-0.5
c-0.1-0.1-0.2-0.2-0.4-0.2h-0.1c-0.1,0-0.2,0-0.3,0c-0.1,0-0.3-0.1-0.4-0.1c-0.1,0-0.3,0-0.4,0.1c-0.1,0-0.2,0-0.2,0h-0.1
c-0.1,0.1-0.3,0.1-0.4,0.2c-0.1,0.1-0.2,0.1-0.3,0.2c-0.1,0.1-0.2,0.2-0.2,0.3c-0.1,0.1-0.2,0.2-0.2,0.3c0,0,0,0.1,0,0.1
c-2,5.5-7.5,11.2-14.1,11.2s-12.1-5.6-14.1-11.2c-0.3-0.9-1.2-1.5-2.2-1.3v6.6c3.2,5.3,8.9,9.9,16,9.9s12.8-4.6,16-9.9
c3.2,5.3,8.9,9.9,16,9.9s12.8-4.6,16-9.9c3.2,5.3,8.9,9.9,16,9.9s12.8-4.6,16-9.9c3.2,5.3,8.9,9.9,16,9.9v-4
C249.4,51.7,243.9,46.1,241.9,40.6z"/><linearGradient id="SVGID_4_" gradientUnits="userSpaceOnUse" x1="-16" y1="12.5" x2="144" y2="12.5" gradientTransform="matrix(1 0 0 -1 0 60)"><stop  offset="0" style="stop-color:#025892"/><stop  offset="0.29" style="stop-color:#58BDDA"/><stop  offset="0.55" style="stop-color:#2FBB9D"/><stop  offset="0.8" style="stop-color:#58BDDA"/><stop  offset="1" style="stop-color:#025892"/></linearGradient><path class="st3" d="M142.1,40.6c-2,5.5-7.5,11.2-14.1,11.2s-12.1-5.6-14.1-11.2c0,0,0-0.1,0-0.1c-0.1-0.1-0.1-0.2-0.2-0.3
c-0.1-0.1-0.1-0.2-0.2-0.3c-0.1-0.1-0.2-0.1-0.3-0.2c-0.1-0.1-0.2-0.2-0.4-0.2h-0.1c-0.1,0-0.2,0-0.3,0c-0.3-0.1-0.6-0.1-0.8,0
c-0.1,0-0.2,0-0.3,0h-0.1c-0.1,0.1-0.3,0.1-0.4,0.2c-0.1,0.1-0.2,0.1-0.3,0.2c-0.1,0.1-0.2,0.2-0.2,0.3c-0.1,0.1-0.2,0.2-0.2,0.3
c0,0,0,0.1,0,0.1c-2,5.5-7.5,11.2-14.1,11.2s-12.2-5.6-14.2-11.2c0,0,0-0.1,0-0.1c-0.1-0.1-0.1-0.2-0.2-0.3
c-0.1-0.2-0.3-0.4-0.5-0.5c-0.1-0.1-0.2-0.2-0.3-0.2h-0.1c-0.1,0-0.2,0-0.3,0c-0.3-0.1-0.6-0.1-0.8,0c-0.1,0-0.2,0-0.2,0h-0.1
c-0.1,0.1-0.3,0.1-0.4,0.2c-0.1,0.1-0.2,0.1-0.3,0.2c-0.1,0.1-0.2,0.2-0.2,0.3c-0.1,0.1-0.1,0.2-0.2,0.3c0,0,0,0.1,0,0.1
c-2,5.5-7.5,11.2-14.1,11.2s-12.2-5.6-14.2-11.2c0,0,0-0.1,0-0.1c-0.1-0.1-0.1-0.2-0.2-0.3c-0.1-0.1-0.1-0.2-0.2-0.3
c-0.1-0.1-0.2-0.2-0.3-0.2c-0.1-0.1-0.2-0.2-0.4-0.2h-0.1c-0.1,0-0.2,0-0.3,0c-0.1,0-0.3-0.1-0.4-0.1c-0.1,0-0.3,0-0.4,0.1
c-0.1,0-0.2,0-0.2,0h-0.1c-0.1,0.1-0.3,0.1-0.4,0.2c-0.1,0.1-0.2,0.1-0.3,0.2c-0.1,0.1-0.2,0.2-0.2,0.3c-0.1,0.1-0.2,0.2-0.2,0.3
c0,0,0,0.1,0,0.1c-2,5.5-7.5,11.2-14.1,11.2s-12.1-5.6-14.1-11.2c0,0,0-0.1,0-0.1c-0.1-0.1-0.1-0.2-0.2-0.3
c-0.1-0.2-0.3-0.4-0.5-0.5c-0.1-0.1-0.2-0.2-0.4-0.2h-0.1c-0.1,0-0.2,0-0.3,0c-0.1,0-0.3-0.1-0.4-0.1c-0.1,0-0.3,0-0.4,0.1
c-0.1,0-0.2,0-0.2,0h-0.1c-0.1,0.1-0.3,0.1-0.4,0.2c-0.1,0.1-0.2,0.1-0.3,0.2c-0.1,0.1-0.2,0.2-0.2,0.3c-0.1,0.1-0.2,0.2-0.2,0.3
c0,0,0,0.1-0.1,0.1c-2,5.5-7.5,11.2-14.1,11.2v4c7.2,0,12.8-4.6,16-9.9c3.2,5.3,8.9,9.9,16,9.9s12.8-4.6,16-9.9
c3.2,5.3,8.8,9.9,16,9.9s12.8-4.6,16-9.9c3.2,5.3,8.8,9.9,16,9.9s12.8-4.6,16-9.9c3.2,5.3,8.8,9.9,16,9.9c7.1,0,12.8-4.6,16-9.9
v-6.6C143.2,39.3,142.4,39.8,142.1,40.6z"/></g>	</g></svg>